# xmcd
#
# Track frame offsets:
#	150
#	12710
#	25913
#	37405
#	49230
#	68433
#	82210
#	93560
#	107938
#	125828
#
# Disc length: 1836 seconds
#
# Revision: 0
# Processed by: cddbd v1.5.2PL0 Copyright (c) Steve Scherf et al.
# Submitted via: MusicWizard 6.0.0
#
DISCID=94072a0a
DTITLE=Johnny Cash and Waylon Jennings - Heroes/ Razor and Tie
DYEAR=1995
DGENRE=Country
TTITLE0=Folks Out On The Road
TTITLE1=I'm Never Gonna Roam Again
TTITLE2=American By Birth
TTITLE3=Field Of Diamonds
TTITLE4=Heroes
TTITLE5=Even Cowgirls Get The Blues
TTITLE6=Love Is The Way
TTITLE7=The Ballad Of Forty Dollars
TTITLE8=I'll Always Love You (In My Own Crazy Way)
TTITLE9=One Too Many Mornings
EXTD=(p)1986 Sony Music Entertainment USA\n(c)1995 Razor and Tie Music L.P. - Columbia Records USA\n
EXTD=Sony Music Special Products A 26294\nRazor and Tie RE 2078\nupc 793018207829
EXTT0=
EXTT1=
EXTT2=
EXTT3=
EXTT4=
EXTT5=
EXTT6=
EXTT7=
EXTT8=
EXTT9=
PLAYORDER=
